<svg xmlns="http://www.w3.org/2000/svg" version="1.1" xmlns:xlink="http://www.w3.org/1999/xlink" width="512" height="512" x="0" y="0" viewBox="0 0 512 512" style="enable-background:new 0 0 512 512" xml:space="preserve" class=""><g><path d="M198.67 373.2c13.779 31.948 32.991 60.923 57.329 86.407 24.34-25.485 43.551-54.459 57.33-86.407zM218.554 49.365a208.858 208.858 0 0 0-73.681 28.432A210.888 210.888 0 0 0 81.772 138.8h84.48c12.56-32.607 30.081-62.559 52.302-89.435zM293.446 462.635a208.858 208.858 0 0 0 73.681-28.432 210.888 210.888 0 0 0 63.101-61.003h-84.48c-12.56 32.607-30.081 62.559-52.302 89.435zM430.228 138.8a210.888 210.888 0 0 0-63.101-61.003 208.856 208.856 0 0 0-73.681-28.431c22.221 26.876 39.742 56.828 52.302 89.435h84.48zM313.33 138.8c-13.78-31.948-32.991-60.923-57.33-86.407-24.34 25.485-43.551 54.459-57.33 86.407zM81.772 373.2a210.888 210.888 0 0 0 63.101 61.003 208.856 208.856 0 0 0 73.681 28.431c-22.221-26.876-39.742-56.828-52.302-89.435h-84.48zM0 168.8v174.4h512V168.8zm157.367 137.908h-21.711l-39.982-63.631v64.978H72.652V197.714l21.711.004 39.982 63.63v-63.796h23.022zm73.277-85.734H194.12v20.318h33.831v23.022H194.12v20.318h36.524v23.022h-59.547V197.951h59.547zm108.48 86.334-21.833.149-17.915-62.133-17.928 61.989-21.845.149-21.126-106.801 22.585-4.467 11.599 58.636 16.161-55.878 21.152.027 16.115 55.887 11.647-58.521 22.579 4.494zm99.776-27.701c-2.943 16.484-18.663 28.448-37.378 28.448-15.148 0-29.368-6.105-39.014-16.749l17.059-15.46c5.213 5.752 13.42 9.186 21.955 9.186 8.152 0 13.883-4.816 14.714-9.472 1.115-6.244-8.216-10.203-11.102-11.268-13.585-5.011-25.649-10.381-26.156-10.607l-.833-.372-.764-.498c-9.414-6.137-14.265-16.901-12.659-28.089 1.709-11.91 10.408-21.608 22.702-25.312 24.195-7.289 44.1 9.127 44.936 9.829l-14.814 17.624.07.058c-.113-.091-11.416-9.122-23.551-5.467-5.297 1.596-6.348 5.105-6.554 6.539-.143 1-.217 3.385 1.876 5.115 3.148 1.377 13.067 5.652 23.713 9.579 22.406 8.266 28.018 24.49 25.8 36.916z" fill="#000000" opacity="1" data-original="#000000"></path></g></svg>