<svg xmlns="http://www.w3.org/2000/svg" version="1.1" xmlns:xlink="http://www.w3.org/1999/xlink" width="512" height="512" x="0" y="0" viewBox="0 0 512.026 512.026" style="enable-background:new 0 0 512 512" xml:space="preserve" class=""><g><path d="M467.026 174.013h-15v60h60v-15c0-24.853-20.147-45-45-45z" fill="#000000" opacity="1" data-original="#000000"></path><circle cx="151.026" cy="414.013" r="45" fill="#000000" opacity="1" data-original="#000000"></circle><circle cx="407.026" cy="414.013" r="45" fill="#000000" opacity="1" data-original="#000000"></circle><path d="M91.978 62.74 5.827 290.82c-9.902 26.426-7.09 55.562 7.72 79.922 13.039 21.423 36.801 35.847 62.719 40.897 1.287-40.232 34.221-72.625 74.76-72.625 41.353 0 75 33.647 75 75h106v-255c0-8.286 6.716-15 15-15h45c33.137 0 60-26.863 60-60v-16c0-8.286-6.716-15-15-15H106.013a14.988 14.988 0 0 0-14.035 9.726zm144.331 158.412c7.119-4.292 16.318-1.948 20.581 5.142l26.997 45c2.783 4.644 2.856 10.415.19 15.117s-7.646 7.603-13.052 7.603h-60c-8.291 0-15-6.709-15-15s6.709-15 15-15h33.516l-13.374-22.28c-4.262-7.106-1.962-16.319 5.142-20.582zm-95.141-54.859 26.997-45c5.42-9.023 20.303-9.023 25.723 0l26.997 45c4.263 7.104 1.963 16.318-5.142 20.581-7.086 4.252-16.311 1.974-20.581-5.142l-14.136-23.569-14.136 23.569c-4.263 7.09-13.462 9.434-20.581 5.142-7.104-4.262-9.404-13.476-5.141-20.581zm-15.425 54.859c7.104 4.263 9.404 13.477 5.142 20.581l-13.374 22.28h33.516c8.291 0 15 6.709 15 15s-6.709 15-15 15h-60c-5.405 0-10.386-2.9-13.052-7.603s-2.593-10.474.19-15.117l26.997-45c4.263-7.089 13.462-9.433 20.581-5.141z" fill="#000000" opacity="1" data-original="#000000"></path><path d="M422.026 249.013v-75h-60v180.383c12.574-9.518 28.052-15.383 45-15.383 41.353 0 75 33.647 75 75h15c8.284 0 15-6.716 15-15v-75h-15c-8.291 0-15-6.709-15-15s6.709-15 15-15h15v-30h-75c-8.291 0-15-6.709-15-15z" fill="#000000" opacity="1" data-original="#000000"></path></g></svg>